<?xml version="1.0" encoding="utf-8"?>
<!-- Generator: Adobe Illustrator 28.2.0, SVG Export Plug-In . SVG Version: 6.00 Build 0)  -->
<svg version="1.1" id="Layer_1" xmlns="http://www.w3.org/2000/svg" xmlns:xlink="http://www.w3.org/1999/xlink" x="0px" y="0px"
	 viewBox="0 0 500 500" style="enable-background:new 0 0 500 500;" xml:space="preserve">
<style type="text/css">
	.st0{fill:#ED1C24;stroke:#000000;stroke-width:4;stroke-miterlimit:10;}
	.st1{fill:#FFFFFF;stroke:#000000;stroke-width:4;stroke-miterlimit:10;}
</style>
<rect x="34.33" y="34.2" class="st0" width="432.48" height="432.85"/>
<rect x="156.38" y="236.84" class="st1" width="27" height="0.41"/>
<rect x="183.38" y="236.84" class="st1" width="27" height="0.41"/>
<rect x="236.97" y="210.25" class="st1" width="0.4" height="27"/>
<rect x="290.97" y="236.84" class="st1" width="27" height="0.41"/>
<rect x="317.96" y="236.84" class="st1" width="27" height="0.41"/>
<rect x="183.38" y="236.84" class="st1" width="27" height="0.41"/>
<rect x="183.38" y="263.62" class="st1" width="27" height="0.22"/>
<rect x="236.97" y="236.84" class="st1" width="0.4" height="27"/>
<rect x="156.38" y="263.62" class="st1" width="27" height="0.22"/>
<rect x="156.38" y="290.21" class="st1" width="27" height="0.41"/>
<path class="st1" d="M236.97,370.58V210.25H129.38V317.2h27v-27h53.99v160.54h27v-80.16H236.97z M156.38,263.84v-27h53.99v27H156.38
	z"/>
<rect x="183.38" y="290.21" class="st1" width="27" height="0.41"/>
<rect x="236.97" y="263.62" class="st1" width="0.4" height="27"/>
<rect x="290.97" y="263.62" class="st1" width="27" height="0.22"/>
<rect x="290.97" y="290.21" class="st1" width="27" height="0.41"/>
<rect x="317.96" y="263.62" class="st1" width="27" height="0.22"/>
<rect x="317.96" y="290.21" class="st1" width="27" height="0.41"/>
<rect x="236.97" y="290.21" class="st1" width="0.4" height="27"/>
<path class="st1" d="M263.97,210.25v240.49h27V290.21h53.99v27h27V210.25H263.97z M344.96,263.84h-53.99v-27h53.99V263.84z"/>
<rect x="236.97" y="317.2" class="st1" width="0.4" height="27"/>
<rect x="236.97" y="343.79" class="st1" width="0.4" height="26.79"/>
<rect x="210.37" y="450.74" class="st1" width="27" height="0.42"/>
<rect x="263.97" y="450.74" class="st1" width="27" height="0.42"/>
<polygon class="st1" points="236.78,49.92 236.78,183.47 129.19,183.47 129.19,130.09 156.18,130.09 156.18,157.09 210.18,157.09 
	210.18,49.92 "/>
<rect x="236.78" y="130.09" class="st1" width="0.4" height="27"/>
<rect x="129.19" y="183.47" class="st1" width="27" height="0.41"/>
<rect x="156.18" y="156.88" class="st1" width="27" height="0.21"/>
<rect x="156.18" y="183.47" class="st1" width="27" height="0.41"/>
<rect x="183.18" y="156.88" class="st1" width="27" height="0.21"/>
<rect x="183.18" y="183.47" class="st1" width="27" height="0.41"/>
<polygon class="st1" points="237.18,156.88 237.18,183.88 210.18,183.88 210.18,183.47 236.78,183.47 236.78,156.88 "/>
<rect x="263.77" y="183.47" class="st1" width="27" height="0.41"/>
<rect x="290.77" y="156.88" class="st1" width="27" height="0.21"/>
<rect x="290.77" y="183.47" class="st1" width="27" height="0.41"/>
<rect x="317.77" y="156.88" class="st1" width="27" height="0.21"/>
<rect x="317.77" y="183.47" class="st1" width="27" height="0.41"/>
<rect x="344.77" y="183.47" class="st1" width="27" height="0.41"/>
<polygon class="st1" points="237.18,49.72 237.18,76.71 236.78,76.71 236.78,49.92 210.18,49.92 210.18,49.72 "/>
<polygon class="st1" points="371.76,129.99 371.76,183.37 263.77,183.37 263.77,49.82 290.77,49.82 290.77,156.99 344.77,156.99 
	344.77,129.99 "/>
<rect x="263.77" y="49.72" class="st1" width="27" height="0.21"/>
<rect x="236.78" y="76.51" class="st1" width="0.4" height="27"/>
<rect x="236.78" y="103.09" class="st1" width="0.4" height="27"/>
<polygon class="st1" points="448.56,49.92 448.56,109.1 424.75,109.1 424.75,73.73 389.39,73.73 389.39,49.92 "/>
<polygon class="st1" points="52.36,451.17 52.36,391.98 76.17,391.98 76.17,427.36 111.53,427.36 111.53,451.17 "/>
</svg>
