<?xml version="1.0" encoding="utf-8"?>
<!-- Generator: Adobe Illustrator 28.2.0, SVG Export Plug-In . SVG Version: 6.00 Build 0)  -->
<svg version="1.1" id="Layer_1" xmlns="http://www.w3.org/2000/svg" xmlns:xlink="http://www.w3.org/1999/xlink" x="0px" y="0px"
	 viewBox="0 0 500 500" style="enable-background:new 0 0 500 500;" xml:space="preserve">
<style type="text/css">
	.st0{fill:#FFFFFF;stroke:#FFFFFF;stroke-width:4;stroke-miterlimit:10;}
</style>
<rect x="152.25" y="235.88" class="st0" width="28.02" height="0.43"/>
<rect x="180.26" y="235.88" class="st0" width="28.02" height="0.43"/>
<rect x="235.88" y="208.29" class="st0" width="0.41" height="28.02"/>
<rect x="291.92" y="235.88" class="st0" width="28.02" height="0.43"/>
<rect x="319.94" y="235.88" class="st0" width="28.02" height="0.43"/>
<rect x="180.26" y="235.88" class="st0" width="28.02" height="0.43"/>
<rect x="180.26" y="263.68" class="st0" width="28.02" height="0.22"/>
<rect x="235.88" y="235.88" class="st0" width="0.41" height="28.02"/>
<rect x="152.25" y="263.68" class="st0" width="28.02" height="0.22"/>
<rect x="152.25" y="291.27" class="st0" width="28.02" height="0.43"/>
<path class="st0" d="M235.88,374.68V208.29H124.23v110.99h28.02v-28.02h56.03v166.6h28.02v-83.19H235.88z M152.25,263.9v-28.02
	h56.03v28.02H152.25z"/>
<rect x="180.26" y="291.27" class="st0" width="28.02" height="0.43"/>
<rect x="235.88" y="263.68" class="st0" width="0.41" height="28.02"/>
<rect x="291.92" y="263.68" class="st0" width="28.02" height="0.22"/>
<rect x="291.92" y="291.27" class="st0" width="28.02" height="0.43"/>
<rect x="319.94" y="263.68" class="st0" width="28.02" height="0.22"/>
<rect x="319.94" y="291.27" class="st0" width="28.02" height="0.43"/>
<rect x="235.88" y="291.27" class="st0" width="0.41" height="28.02"/>
<path class="st0" d="M263.9,208.29v249.58h28.02v-166.6h56.03v28.02h28.02V208.29H263.9z M347.95,263.9h-56.03v-28.02h56.03V263.9z"
	/>
<rect x="235.88" y="319.29" class="st0" width="0.41" height="28.02"/>
<rect x="235.88" y="346.88" class="st0" width="0.41" height="27.8"/>
<rect x="208.28" y="457.87" class="st0" width="28.02" height="0.44"/>
<rect x="263.9" y="457.87" class="st0" width="28.02" height="0.44"/>
<polygon class="st0" points="235.68,41.9 235.68,180.5 124.03,180.5 124.03,125.1 152.05,125.1 152.05,153.12 208.08,153.12 
	208.08,41.9 "/>
<rect x="235.68" y="125.1" class="st0" width="0.41" height="28.02"/>
<rect x="124.03" y="180.5" class="st0" width="28.02" height="0.43"/>
<rect x="152.05" y="152.91" class="st0" width="28.02" height="0.21"/>
<rect x="152.05" y="180.5" class="st0" width="28.02" height="0.43"/>
<rect x="180.06" y="152.91" class="st0" width="28.02" height="0.21"/>
<rect x="180.06" y="180.5" class="st0" width="28.02" height="0.43"/>
<polygon class="st0" points="236.1,152.91 236.1,180.93 208.08,180.93 208.08,180.5 235.68,180.5 235.68,152.91 "/>
<rect x="263.7" y="180.5" class="st0" width="28.02" height="0.43"/>
<rect x="291.72" y="152.91" class="st0" width="28.02" height="0.21"/>
<rect x="291.72" y="180.5" class="st0" width="28.02" height="0.43"/>
<rect x="319.74" y="152.91" class="st0" width="28.02" height="0.21"/>
<rect x="319.74" y="180.5" class="st0" width="28.02" height="0.43"/>
<rect x="347.75" y="180.5" class="st0" width="28.02" height="0.43"/>
<polygon class="st0" points="236.1,41.69 236.1,69.71 235.68,69.71 235.68,41.9 208.08,41.9 208.08,41.69 "/>
<polygon class="st0" points="375.77,125 375.77,180.39 263.7,180.39 263.7,41.8 291.72,41.8 291.72,153.01 347.75,153.01 
	347.75,125 "/>
<rect x="263.7" y="41.69" class="st0" width="28.02" height="0.21"/>
<rect x="235.68" y="69.5" class="st0" width="0.41" height="28.02"/>
<rect x="235.68" y="97.09" class="st0" width="0.41" height="28.02"/>
<polygon class="st0" points="455.47,41.9 455.47,103.32 430.76,103.32 430.76,66.61 394.06,66.61 394.06,41.9 "/>
<polygon class="st0" points="44.3,458.31 44.3,396.89 69,396.89 69,433.6 105.7,433.6 105.7,458.31 "/>
</svg>
