<?xml version="1.0" encoding="utf-8"?>
<!-- Generator: Adobe Illustrator 28.2.0, SVG Export Plug-In . SVG Version: 6.00 Build 0)  -->
<svg version="1.1" id="Layer_1" xmlns="http://www.w3.org/2000/svg" xmlns:xlink="http://www.w3.org/1999/xlink" x="0px" y="0px"
	 viewBox="0 0 500 500" style="enable-background:new 0 0 500 500;" xml:space="preserve">
<style type="text/css">
	.st0{stroke:#000000;stroke-miterlimit:10;}
</style>
<g>
	<rect x="135.72" y="233.5" class="st0" width="32.75" height="0.5"/>
	<rect x="168.47" y="233.5" class="st0" width="32.75" height="0.5"/>
	<rect x="233.5" y="201.24" class="st0" width="0.48" height="32.75"/>
	<rect x="299.01" y="233.5" class="st0" width="32.75" height="0.5"/>
	<rect x="331.76" y="233.5" class="st0" width="32.75" height="0.5"/>
	<rect x="168.47" y="233.5" class="st0" width="32.75" height="0.5"/>
	<rect x="168.47" y="265.99" class="st0" width="32.75" height="0.26"/>
	<rect x="233.5" y="233.5" class="st0" width="0.48" height="32.75"/>
	<rect x="135.72" y="265.99" class="st0" width="32.75" height="0.26"/>
	<rect x="135.72" y="298.25" class="st0" width="32.75" height="0.5"/>
	<path class="st0" d="M233.5,395.76V201.24H102.97V331h32.75v-32.75h65.51v194.77h32.75v-97.25H233.5z M135.72,266.25V233.5h65.51
		v32.75H135.72z"/>
	<rect x="168.47" y="298.25" class="st0" width="32.75" height="0.5"/>
	<rect x="233.5" y="265.99" class="st0" width="0.48" height="32.75"/>
	<rect x="299.01" y="265.99" class="st0" width="32.75" height="0.26"/>
	<rect x="299.01" y="298.25" class="st0" width="32.75" height="0.5"/>
	<rect x="331.76" y="265.99" class="st0" width="32.75" height="0.26"/>
	<rect x="331.76" y="298.25" class="st0" width="32.75" height="0.5"/>
	<rect x="233.5" y="298.25" class="st0" width="0.48" height="32.75"/>
	<path class="st0" d="M266.25,201.24v291.78h32.75V298.25h65.51V331h32.75V201.24H266.25z M364.52,266.25h-65.51V233.5h65.51V266.25
		z"/>
	<rect x="233.5" y="331" class="st0" width="0.48" height="32.75"/>
	<rect x="233.5" y="363.26" class="st0" width="0.48" height="32.51"/>
	<rect x="201.23" y="493.02" class="st0" width="32.75" height="0.51"/>
	<rect x="266.25" y="493.02" class="st0" width="32.75" height="0.51"/>
	<polygon class="st0" points="233.26,6.72 233.26,168.75 102.73,168.75 102.73,103.99 135.48,103.99 135.48,136.74 200.99,136.74 
		200.99,6.72 	"/>
	<rect x="233.26" y="103.99" class="st0" width="0.48" height="32.75"/>
	<rect x="102.73" y="168.75" class="st0" width="32.75" height="0.5"/>
	<rect x="135.48" y="136.49" class="st0" width="32.75" height="0.25"/>
	<rect x="135.48" y="168.75" class="st0" width="32.75" height="0.5"/>
	<rect x="168.24" y="136.49" class="st0" width="32.75" height="0.25"/>
	<rect x="168.24" y="168.75" class="st0" width="32.75" height="0.5"/>
	<polygon class="st0" points="233.75,136.49 233.75,169.25 200.99,169.25 200.99,168.75 233.26,168.75 233.26,136.49 	"/>
	<rect x="266.02" y="168.75" class="st0" width="32.75" height="0.5"/>
	<rect x="298.77" y="136.49" class="st0" width="32.75" height="0.25"/>
	<rect x="298.77" y="168.75" class="st0" width="32.75" height="0.5"/>
	<rect x="331.53" y="136.49" class="st0" width="32.75" height="0.25"/>
	<rect x="331.53" y="168.75" class="st0" width="32.75" height="0.5"/>
	<rect x="364.28" y="168.75" class="st0" width="32.75" height="0.5"/>
	<polygon class="st0" points="233.75,6.47 233.75,39.23 233.26,39.23 233.26,6.72 200.99,6.72 200.99,6.47 	"/>
	<polygon class="st0" points="397.03,103.86 397.03,168.62 266.02,168.62 266.02,6.6 298.77,6.6 298.77,136.62 364.28,136.62 
		364.28,103.86 	"/>
	<rect x="266.02" y="6.47" class="st0" width="32.75" height="0.25"/>
	<rect x="233.26" y="38.98" class="st0" width="0.48" height="32.75"/>
	<rect x="233.26" y="71.23" class="st0" width="0.48" height="32.75"/>
</g>
</svg>
